<svg width="38" height="43" viewBox="0 0 38 43" fill="none" xmlns="http://www.w3.org/2000/svg">
<path d="M21.4998 2.96673C21.4814 1.58614 20.3473 0.481849 18.9667 0.500221C17.5861 0.518594 16.4818 1.65268 16.5002 3.03327L21.4998 2.96673ZM17.7483 41.7948C18.7376 42.758 20.3203 42.7369 21.2836 41.7477L36.9804 25.6275C37.9436 24.6383 37.9225 23.0555 36.9333 22.0923C35.9441 21.1291 34.3613 21.1501 33.3981 22.1393L19.4454 36.4684L5.11632 22.5157C4.12711 21.5525 2.54433 21.5735 1.5811 22.5627C0.617867 23.552 0.63893 25.1347 1.62815 26.098L17.7483 41.7948ZM16.5002 3.03327L16.9927 40.0369L21.9922 39.9703L21.4998 2.96673L16.5002 3.03327Z" fill="black"/>
</svg>
